<svg version="1.0" xmlns="http://www.w3.org/2000/svg"
 width="660.000000pt" height="660.000000pt" viewBox="0 0 660.000000 660.000000"
 preserveAspectRatio="xMidYMid meet">
<g transform="translate(0.000000,660.000000) scale(0.100000,-0.100000)"
fill="#53fc18" stroke="none">
<path d="M3830 6592 l-505 -3 -95 -131 c-52 -72 -122 -168 -155 -213 -33 -46
-177 -244 -320 -440 -143 -196 -342 -470 -443 -609 -100 -138 -190 -261 -200
-274 -9 -12 -170 -233 -357 -490 l-340 -468 -3 1313 -2 1313 -640 0 -640 0 0
-3295 0 -3295 640 0 640 0 2 1974 3 1973 265 -364 c146 -201 271 -372 278
-382 17 -23 154 -211 172 -238 8 -11 134 -184 280 -383 146 -199 275 -376 287
-393 54 -77 74 -104 184 -254 64 -87 168 -230 232 -318 64 -88 120 -164 124
-170 9 -10 684 -936 809 -1110 40 -55 110 -152 157 -215 l83 -115 920 -3
c1024 -3 969 -6 1036 66 97 105 183 336 214 573 3 24 8 55 10 69 3 14 7 157
10 318 l4 292 -778 1 -777 0 -55 77 c-45 64 -525 724 -833 1147 -45 61 -113
155 -154 210 -40 55 -76 105 -80 110 -5 6 -26 34 -47 64 -21 30 -43 59 -48 65
-5 6 -56 76 -113 156 -57 80 -108 150 -112 155 -14 16 -458 629 -465 640 -8
13 -9 12 362 521 168 231 368 506 445 611 l140 193 1257 0 1257 0 -3 293 c-3
160 -7 302 -10 314 -2 12 -7 48 -11 80 -3 32 -10 72 -14 88 -5 17 -12 48 -16
70 -13 75 -74 242 -116 314 -45 79 -118 148 -164 156 -37 6 -1621 11 -2315 7z"/>
</g>
</svg>
